#N canvas 211 29 776 804 10;
#X msg 146 245 reload;
#X obj 221 61 bng 15 250 50 0 empty empty empty 17 7 0 10 -262144 -1
-1;
#X floatatom 300 249 5 0 0 0 - - -;
#X text 242 59 1.DOWNLOAD DATA;
#X text 218 314 2.OUT;
#X floatatom 220 328 5 0 0 0 - - -;
#X msg 68 283 detach \$1;
#X obj 68 62 tgl 15 0 empty empty empty 17 7 0 10 -262144 -1 -1 1 1
;
#X text 25 60 DETACH;
#X obj 523 145 i;
#X floatatom 523 173 5 0 0 0 - - -;
#X obj 550 145 + 1;
#X obj 370 78 metro 200;
#X obj 370 55 tgl 15 0 empty empty empty 17 7 0 10 -262144 -1 -1 0
1;
#X floatatom 421 55 5 0 0 0 - - -;
#X obj 370 160 random;
#X obj 370 188 moses;
#X floatatom 414 133 5 0 0 0 - - -;
#X obj 370 109 demultiplex 1 2;
#X text 511 54 RANDOM;
#X text 511 77 INCREMENT;
#X msg 483 55 0;
#X msg 483 78 1;
#X floatatom 414 160 5 0 0 0 - - -;
#X text 452 138 RANDOM;
#X text 452 163 PROBAB;
#X text 365 29 TIMER;
#X obj 12 -41 cnv 15 100 60 empty empty P.A.D.I 20 12 0 20 -262144
-66577 0;
#X obj 11 -19 cnv 15 100 60 empty empty PARADIGM_OF_ANTIDOTES_TO_DECONSTRUCT_THE_INFRASTRUCTURE
20 12 0 13 -262144 -66577 0;
#X obj 52 504 cnv 15 250 180 empty empty empty 20 12 0 14 -99865 -66577
0;
#X obj 83 636 sendOSC;
#X msg 83 581 disconnect;
#X msg 84 555 connect localhost 9999;
#X obj 62 525 cnv 15 100 20 empty empty Open_SOund_Control_[B] 20 12
0 14 -99865 -262144 0;
#X obj 145 356 unpack f f f f f f;
#X floatatom 145 395 5 0 0 0 - - -;
#X floatatom 166 419 5 0 0 0 - - -;
#X floatatom 187 443 5 0 0 0 - - -;
#X floatatom 208 395 5 0 0 0 - - -;
#X floatatom 229 419 5 0 0 0 - - -;
#X floatatom 250 443 20 0 0 0 - - -;
#X obj 523 200 mod;
#X msg 83 607 send /padi \$1 \$2 \$3 \$4 \$5 \$6;
#X obj 83 355 spigot;
#X obj 53 483 tgl 15 0 empty empty empty 17 7 0 10 -262144 -1 -1 0
1;
#X obj 68 30 loadbang;
#X obj 311 503 cnv 15 250 180 empty empty empty 20 12 0 14 -99865 -66577
0;
#X obj 342 635 sendOSC;
#X msg 342 580 disconnect;
#X msg 343 554 connect localhost 9999;
#X obj 321 524 cnv 15 100 20 empty empty Open_SOund_Control_[B] 20
12 0 14 -99865 -262144 0;
#X msg 342 606 send /padi \$1 \$2 \$3 \$4 \$5 \$6;
#X obj 412 442 pack f f f f f f;
#X obj 386 406 random;
#X floatatom 419 382 5 0 0 0 - - -;
#X obj 435 406 random;
#X floatatom 468 382 5 0 0 0 - - -;
#X obj 481 406 random;
#X floatatom 514 382 5 0 0 0 - - -;
#X obj 526 406 random;
#X floatatom 559 382 5 0 0 0 - - -;
#X obj 572 406 random;
#X floatatom 605 382 5 0 0 0 - - -;
#X obj 621 406 random;
#X floatatom 654 382 5 0 0 0 - - -;
#X obj 386 354 t b b b b b b;
#X obj 395 326 bng 15 250 50 0 empty empty empty 17 7 0 10 -262144
-1 -1;
#X text 411 330 PANIC MODE!!!;
#X obj 145 281 pyext padi_fetch padiclass;
#X text 74 482 SEND OSC;
#X text 511 107 2.GET DATA FROM SPECIFIED INDEX;
#X obj 342 354 spigot;
#X obj 312 482 tgl 15 0 empty empty SEND_OSC 17 7 0 10 -262144 -1 -1
0 1;
#X floatatom 446 278 5 0 0 0 - - -;
#X obj 395 304 metro 200;
#X obj 395 279 tgl 15 0 empty empty empty 17 7 0 10 -262144 -1 -1 0
1;
#X connect 0 0 68 0;
#X connect 1 0 68 1;
#X connect 2 0 68 2;
#X connect 5 0 17 0;
#X connect 5 0 41 1;
#X connect 6 0 68 0;
#X connect 7 0 6 0;
#X connect 9 0 11 0;
#X connect 9 0 10 0;
#X connect 10 0 41 0;
#X connect 11 0 9 1;
#X connect 12 0 18 0;
#X connect 13 0 12 0;
#X connect 14 0 12 1;
#X connect 15 0 16 0;
#X connect 16 0 2 0;
#X connect 17 0 15 1;
#X connect 18 0 15 0;
#X connect 18 1 9 0;
#X connect 21 0 18 1;
#X connect 22 0 18 1;
#X connect 23 0 16 1;
#X connect 31 0 30 0;
#X connect 32 0 30 0;
#X connect 34 0 35 0;
#X connect 34 1 36 0;
#X connect 34 2 37 0;
#X connect 34 3 38 0;
#X connect 34 4 39 0;
#X connect 34 5 40 0;
#X connect 41 0 2 0;
#X connect 42 0 30 0;
#X connect 43 0 42 0;
#X connect 44 0 43 1;
#X connect 45 0 7 0;
#X connect 48 0 47 0;
#X connect 49 0 47 0;
#X connect 51 0 47 0;
#X connect 52 0 71 0;
#X connect 52 0 43 0;
#X connect 53 0 52 0;
#X connect 54 0 53 1;
#X connect 55 0 52 1;
#X connect 56 0 55 1;
#X connect 57 0 52 2;
#X connect 58 0 57 1;
#X connect 59 0 52 3;
#X connect 60 0 59 1;
#X connect 61 0 52 4;
#X connect 62 0 61 1;
#X connect 63 0 52 5;
#X connect 64 0 63 1;
#X connect 65 0 53 0;
#X connect 65 1 55 0;
#X connect 65 2 57 0;
#X connect 65 3 59 0;
#X connect 65 4 61 0;
#X connect 65 5 63 0;
#X connect 66 0 65 0;
#X connect 68 0 34 0;
#X connect 68 0 43 0;
#X connect 68 0 71 0;
#X connect 68 1 5 0;
#X connect 71 0 51 0;
#X connect 72 0 71 1;
#X connect 73 0 74 1;
#X connect 74 0 66 0;
#X connect 75 0 74 0;
