#N canvas 559 22 881 813 10;
#X msg 58 366 close;
#X obj 105 325 convert/pd2ascii CR;
#X obj 126 354 loadbang;
#X msg 124 379 stopbit 1;
#X obj 105 421 comport 3 115200;
#X floatatom 137 226 5 0 0 0 - - -;
#X floatatom 87 227 5 0 0 0 - - -;
#X obj 120 267 t b a;
#X floatatom 183 226 5 0 0 0 - - -;
#X obj 165 267 t b a;
#X msg 253 366 open 3;
#X floatatom 220 226 5 0 0 0 - - -;
#X obj 206 267 t b a;
#X floatatom 264 227 5 0 0 0 - - -;
#X obj 251 264 t b a;
#X obj 137 132 bng 15 250 50 0 empty empty empty 17 7 0 10 -262144
-1 -1;
#X floatatom 318 228 5 0 0 0 - - -;
#X obj 305 265 t b a;
#X obj 104 298 pack f f f f f f;
#X floatatom 90 691 5 0 0 0 - - -;
#X obj 105 666 unpack f f f f f f;
#X floatatom 124 704 5 0 0 0 - - -;
#X floatatom 169 705 5 0 0 0 - - -;
#X floatatom 210 705 5 0 0 0 - - -;
#X floatatom 252 706 5 0 0 0 - - -;
#X floatatom 293 706 5 0 0 0 - - -;
#X obj 105 460 convert/ascii2pd CR;
#X obj 105 503 route list float symbol;
#X floatatom 354 688 5 0 0 0 - - -;
#X obj 473 330 osc~;
#X floatatom 548 186 0 0 0 0 - - -;
#X obj 548 210 sig~ 890;
#X obj 383 570 dac~;
#X obj 548 241 phasor~;
#X obj 553 316 adc~;
#X obj 547 341 snapshot~;
#X obj 636 170 *;
#X floatatom 645 122 5 0 0 0 - - -;
#X obj 690 305 *;
#X obj 510 402 snapshot~;
#X floatatom 548 435 5 0 0 0 - - -;
#X obj 441 228 t b b;
#X obj 511 527 moses 0;
#X obj 691 543;
#X msg 511 616 0;
#X msg 545 618 1;
#X obj 511 560 t b;
#X obj 585 544 t b;
#X obj 572 569 delay 10;
#X obj 498 585 delay 10;
#X floatatom 631 546 5 0 0 0 - - -;
#X obj 82 732 * -1;
#X floatatom 172 777 5 0 0 0 - - -;
#X obj 81 762 + 90;
#X obj 547 287 osc~ 900;
#X floatatom 636 83 5 0 0 0 - - -;
#X floatatom 405 98 0 0 0 0 - - -;
#X obj 392 152 osc~ 1000;
#X obj 410 126 *;
#X floatatom 443 114 5 0 0 0 - - -;
#X msg 48 44 1;
#X msg 42 82 0;
#X msg 206 145 0 0 0 0 0 0 0 1;
#X msg 196 116 1 1 1 1 1 1 1;
#X obj 260 775 *;
#X floatatom 270 738 5 0 0 0 - - -;
#X obj 511 439 - 0.3;
#X floatatom 118 741 5 0 0 0 - - -;
#X floatatom 550 504 5 0 0 0 - - -;
#X floatatom 623 632 5 0 0 0 - - -;
#X obj 566 747 noise~;
#X obj 639 716;
#X msg 625 687 1;
#X msg 674 684 0;
#X obj 507 734 t b;
#X obj 462 735 t b;
#X obj 525 782 spigot~;
#X obj 360 770 phasor~ 2000;
#X obj 358 721 * -2000;
#X obj 363 748 + 2000;
#X obj 455 780 *~;
#X obj 430 659 moses 190;
#X obj 675 752 *~ 5;
#X msg 33 626 -214;
#X obj 55 587 loadbang;
#X obj 714 50 loadbang;
#X msg 692 89 188;
#X obj 550 455 loadbang;
#X msg 550 481 0.88;
#X connect 0 0 4 0;
#X connect 1 0 4 0;
#X connect 2 0 3 0;
#X connect 3 0 4 0;
#X connect 4 0 26 0;
#X connect 5 0 7 0;
#X connect 6 0 18 0;
#X connect 7 0 6 0;
#X connect 7 1 18 1;
#X connect 8 0 9 0;
#X connect 9 0 6 0;
#X connect 9 1 18 2;
#X connect 10 0 4 0;
#X connect 11 0 12 0;
#X connect 12 0 6 0;
#X connect 12 1 18 3;
#X connect 13 0 14 0;
#X connect 14 0 6 0;
#X connect 14 1 18 4;
#X connect 15 0 6 0;
#X connect 16 0 17 0;
#X connect 17 0 6 0;
#X connect 17 1 18 5;
#X connect 18 0 1 0;
#X connect 19 0 51 0;
#X connect 19 0 80 1;
#X connect 20 0 19 0;
#X connect 20 1 21 0;
#X connect 20 2 22 0;
#X connect 20 3 23 0;
#X connect 20 4 24 0;
#X connect 20 5 25 0;
#X connect 22 0 59 0;
#X connect 23 0 33 0;
#X connect 23 0 81 0;
#X connect 24 0 65 0;
#X connect 25 0 28 0;
#X connect 26 0 27 0;
#X connect 27 0 20 0;
#X connect 28 0 78 0;
#X connect 30 0 31 0;
#X connect 30 0 36 0;
#X connect 30 0 41 0;
#X connect 30 0 56 0;
#X connect 31 0 33 0;
#X connect 31 0 54 0;
#X connect 33 0 32 0;
#X connect 33 0 32 1;
#X connect 33 0 39 0;
#X connect 34 0 35 0;
#X connect 36 0 54 1;
#X connect 37 0 36 1;
#X connect 39 0 40 0;
#X connect 39 0 66 0;
#X connect 41 0 39 0;
#X connect 42 0 46 0;
#X connect 42 1 47 0;
#X connect 44 0 63 0;
#X connect 45 0 62 0;
#X connect 46 0 49 0;
#X connect 47 0 48 0;
#X connect 48 0 45 0;
#X connect 49 0 44 0;
#X connect 50 0 48 1;
#X connect 51 0 64 0;
#X connect 52 0 30 0;
#X connect 52 0 55 0;
#X connect 53 0 52 0;
#X connect 54 0 32 0;
#X connect 54 0 32 1;
#X connect 55 0 33 1;
#X connect 56 0 58 0;
#X connect 57 0 32 0;
#X connect 57 0 32 1;
#X connect 58 0 57 0;
#X connect 59 0 58 1;
#X connect 60 0 1 0;
#X connect 61 0 1 0;
#X connect 62 0 1 0;
#X connect 63 0 1 0;
#X connect 64 0 53 0;
#X connect 65 0 64 1;
#X connect 66 0 42 0;
#X connect 67 0 53 1;
#X connect 68 0 42 1;
#X connect 69 0 49 1;
#X connect 70 0 82 0;
#X connect 72 0 76 1;
#X connect 73 0 76 1;
#X connect 74 0 73 0;
#X connect 75 0 72 0;
#X connect 76 0 32 0;
#X connect 76 0 32 1;
#X connect 77 0 80 0;
#X connect 78 0 79 0;
#X connect 79 0 77 0;
#X connect 80 0 32 0;
#X connect 80 0 32 1;
#X connect 81 0 74 0;
#X connect 81 1 75 0;
#X connect 82 0 76 0;
#X connect 83 0 67 0;
#X connect 84 0 83 0;
#X connect 85 0 86 0;
#X connect 86 0 37 0;
#X connect 87 0 88 0;
#X connect 88 0 68 0;
