#N canvas 559 22 881 813 10;
#X msg 58 366 close;
#X obj 105 325 convert/pd2ascii CR;
#X obj 126 354 loadbang;
#X msg 124 379 stopbit 1;
#X obj 105 421 comport 3 115200;
#X floatatom 137 226 5 0 0 0 - - -;
#X floatatom 87 227 5 0 0 0 - - -;
#X obj 120 267 t b a;
#X floatatom 183 226 5 0 0 0 - - -;
#X obj 165 267 t b a;
#X msg 253 366 open 3;
#X floatatom 220 226 5 0 0 0 - - -;
#X obj 206 267 t b a;
#X floatatom 264 227 5 0 0 0 - - -;
#X obj 251 264 t b a;
#X obj 137 132 bng 15 250 50 0 empty empty empty 17 7 0 10 -262144
-1 -1;
#X floatatom 318 228 5 0 0 0 - - -;
#X obj 305 265 t b a;
#X obj 104 298 pack f f f f f f;
#X floatatom 83 704 5 0 0 0 - - -;
#X obj 208 618 print digitals;
#X obj 105 666 unpack f f f f f f;
#X floatatom 124 704 5 0 0 0 - - -;
#X floatatom 169 705 5 0 0 0 - - -;
#X floatatom 210 705 5 0 0 0 - - -;
#X floatatom 252 706 5 0 0 0 - - -;
#X floatatom 293 706 5 0 0 0 - - -;
#X obj 105 460 convert/ascii2pd CR;
#X obj 105 503 route list float symbol;
#X floatatom 136 533 5 0 0 0 - - -;
#X symbolatom 184 532 10 0 0 0 - - -;
#X obj 268 563 print SPECIAL_CHAR;
#X obj 344 654 timer;
#X obj 353 622 t b b;
#X floatatom 354 688 5 0 0 0 - - -;
#X obj 473 330 osc~;
#X floatatom 568 51 0 0 0 0 - - -;
#X obj 568 75 sig~ 890;
#X obj 609 306 dac~;
#X obj 568 106 phasor~;
#X obj 490 477 tgl 15 0 empty empty empty 17 7 0 10 -262144 -1 -1 0
1;
#X obj 512 473 tgl 15 0 empty empty empty 17 7 0 10 -262144 -1 -1 0
1;
#X obj 540 473 tgl 15 0 empty empty empty 17 7 0 10 -262144 -1 -1 0
1;
#X obj 563 473 tgl 15 0 empty empty empty 17 7 0 10 -262144 -1 -1 0
1;
#X obj 587 477 tgl 15 0 empty empty empty 17 7 0 10 -262144 -1 -1 0
1;
#X obj 612 473 tgl 15 0 empty empty empty 17 7 0 10 -262144 -1 -1 0
1;
#X obj 646 473 tgl 15 0 empty empty empty 17 7 0 10 -262144 -1 -1 0
1;
#X obj 553 316 adc~;
#X obj 547 341 snapshot~;
#X obj 647 494 t b b;
#X obj 625 161 *;
#X floatatom 645 122 5 0 0 0 - - -;
#X obj 690 305 *;
#X obj 540 394 snapshot~;
#X floatatom 545 426 5 0 0 0 - - -;
#X obj 488 236 t b b;
#X obj 517 527 moses 0;
#X obj 691 543;
#X msg 511 616 0;
#X msg 545 618 1;
#X obj 511 560 t b;
#X obj 585 544 t b;
#X obj 572 569 delay 10;
#X obj 498 585 delay 10;
#X floatatom 631 550 5 0 0 0 - - -;
#X obj 82 732 * -1;
#X floatatom 172 777 5 0 0 0 - - -;
#X obj 81 762 + 90;
#X obj 542 152 osc~ 900;
#X floatatom 636 83 5 0 0 0 - - -;
#X floatatom 405 98 0 0 0 0 - - -;
#X obj 392 152 osc~ 1000;
#X obj 410 126 *;
#X floatatom 443 114 5 0 0 0 - - -;
#X msg 48 44 1;
#X msg 42 82 0;
#X msg 206 145 0 0 0 0 0 0 0 1;
#X msg 196 116 1 1 1 1 1 1 1;
#X obj 260 775 *;
#X floatatom 270 738 5 0 0 0 - - -;
#X obj 511 439 - 0.3;
#X floatatom 118 743 5 0 0 0 - - -;
#X floatatom 573 506 5 0 0 0 - - -;
#X floatatom 623 632 5 0 0 0 - - -;
#X connect 0 0 4 0;
#X connect 1 0 4 0;
#X connect 2 0 3 0;
#X connect 3 0 4 0;
#X connect 4 0 27 0;
#X connect 5 0 7 0;
#X connect 6 0 18 0;
#X connect 7 0 6 0;
#X connect 7 1 18 1;
#X connect 8 0 9 0;
#X connect 9 0 6 0;
#X connect 9 1 18 2;
#X connect 10 0 4 0;
#X connect 11 0 12 0;
#X connect 12 0 6 0;
#X connect 12 1 18 3;
#X connect 13 0 14 0;
#X connect 14 0 6 0;
#X connect 14 1 18 4;
#X connect 15 0 6 0;
#X connect 16 0 17 0;
#X connect 17 0 6 0;
#X connect 17 1 18 5;
#X connect 18 0 1 0;
#X connect 19 0 65 0;
#X connect 21 0 19 0;
#X connect 21 1 22 0;
#X connect 21 2 23 0;
#X connect 21 3 24 0;
#X connect 21 4 25 0;
#X connect 21 5 26 0;
#X connect 27 0 28 0;
#X connect 28 0 21 0;
#X connect 28 1 29 0;
#X connect 28 2 30 0;
#X connect 32 0 34 0;
#X connect 33 0 32 0;
#X connect 33 1 32 1;
#X connect 36 0 37 0;
#X connect 36 0 50 0;
#X connect 36 0 55 0;
#X connect 36 0 70 0;
#X connect 37 0 39 0;
#X connect 37 0 68 0;
#X connect 39 0 38 0;
#X connect 39 0 38 1;
#X connect 39 0 53 0;
#X connect 46 0 49 0;
#X connect 47 0 48 0;
#X connect 50 0 68 1;
#X connect 51 0 50 1;
#X connect 53 0 54 0;
#X connect 53 0 80 0;
#X connect 55 0 53 0;
#X connect 56 0 60 0;
#X connect 56 1 61 0;
#X connect 58 0 77 0;
#X connect 59 0 76 0;
#X connect 60 0 63 0;
#X connect 61 0 62 0;
#X connect 62 0 59 0;
#X connect 63 0 58 0;
#X connect 64 0 62 1;
#X connect 65 0 78 0;
#X connect 66 0 36 0;
#X connect 66 0 69 0;
#X connect 67 0 66 0;
#X connect 68 0 38 0;
#X connect 68 0 38 1;
#X connect 69 0 39 1;
#X connect 70 0 72 0;
#X connect 71 0 38 0;
#X connect 71 0 38 1;
#X connect 72 0 71 0;
#X connect 73 0 72 1;
#X connect 74 0 1 0;
#X connect 75 0 1 0;
#X connect 76 0 1 0;
#X connect 77 0 1 0;
#X connect 78 0 67 0;
#X connect 79 0 78 1;
#X connect 80 0 56 0;
#X connect 81 0 67 1;
#X connect 82 0 56 1;
#X connect 83 0 63 1;
